<svg xmlns="http://www.w3.org/2000/svg" width="115" height="128" viewBox="0 0 115 128">
  <metadata><?xpacket begin="﻿" id="W5M0MpCehiHzreSzNTczkc9d"?>
<x:xmpmeta xmlns:x="adobe:ns:meta/" x:xmptk="Adobe XMP Core 5.6-c138 79.159824, 2016/09/14-01:09:01        ">
   <rdf:RDF xmlns:rdf="http://www.w3.org/1999/02/22-rdf-syntax-ns#">
      <rdf:Description rdf:about=""/>
   </rdf:RDF>
</x:xmpmeta>
                                                                                                    
                                                                                                    
                                                                                                    
                                                                                                    
                                                                                                    
                                                                                                    
                                                                                                    
                                                                                                    
                                                                                                    
                                                                                                    
                                                                                                    
                                                                                                    
                                                                                                    
                                                                                                    
                                                                                                    
                                                                                                    
                                                                                                    
                                                                                                    
                                                                                                    
                                                                                                    
                           
<?xpacket end="w"?></metadata>
<defs>
    <style>
      .cls-1 {
        fill: #c5c715;
        fill-rule: evenodd;
      }
    </style>
  </defs>
  <path id="api" class="cls-1" d="M4240,1369.66c-0.02-5.14-2.12-6.87-7.92-9.96s-39.2-20.73-41.63-21.93a18.8,18.8,0,0,0-15.86,0c-5.55,2.74-46.45,23.95-43.61,21.93s-5.87,2.91-5.94,7.97-0.06,59.52,0,61.79,1.42,5.46,5.94,7.98c6.11,3.4,43.55,22.67,45.59,23.92,3.11,1.89,7.29,2.44,11.9,0,6.11-3.24,43.27-24.41,45.59-25.92a13.83,13.83,0,0,0,5.94-11.96m-53.52-77.74s38.37,20.43,38.9,20.81a0.533,0.533,0,0,1,.04.95c-0.23.17-30.37,16.21-30.37,16.21l5.38,6.75s30.87-16.32,31.15-16.47a0.507,0.507,0,0,1,.67.5c-0.02.35-.67,11.01-1.16,24.91a2.608,2.608,0,0,1-.47,1.08c-4.09,6.68-10.77,16.29-17.19,17.96a28.378,28.378,0,0,1-18.51-1.91c2.93-3.97,1.78-12.31-.39-16.52a54.215,54.215,0,0,0-4.59,4.05l-5.63-5.89-4.28,3.95,5.49,5.87-5.05,4.83-5.31-6.31-4.39,3.86,5.29,6.05s-2.38,2.38-4.02,3.99c2.52,3.39,13.01,4.18,17.39,1.02,3.3,3.76,16.55,5.38,22.47,4.18,6.66-1.36,15.31-7.62,18.6-13.5,0.39-.71,1.02-0.22,1.02.48,0,0.86.11,14.37,0.11,14.37a3.412,3.412,0,0,1-.91,1.51c-0.74.5-43.09,23.84-43.77,24.15-0.64.28-1.19-.53-1.2-1.05-0.02-.92-0.16-16.06-0.16-16.06l-7.03-.07s-0.13,14.84-.12,16.11a0.912,0.912,0,0,1-1.11,1.02c-0.57-.25-43.51-22.5-42.89-22.03s-1.55-1.62-1.53-2.69c0.03-1.27.18-57.61,0.2-56.77s0.42-1.22,1-.64,15.75,12.79,19.32,16.12c-1.53,6.16-1.94,12.79,1.83,17.21,5.78-4.42,23.13-18,23.61-19-4.07-2.56-18.44-3.73-18.44-3.73l-19.36-15.71,0.27-1.14s29.81-14.32,38.58-18.94C4183.89,1343.15,4186.48,1345.74,4186.48,1345.74Z" transform="translate(-4125 -1335.515)"/>
</svg>
