<svg xmlns="http://www.w3.org/2000/svg" width="127.994" height="115.507" viewBox="0 0 123 111">
  <metadata><?xpacket begin="﻿" id="W5M0MpCehiHzreSzNTczkc9d"?>
<x:xmpmeta xmlns:x="adobe:ns:meta/" x:xmptk="Adobe XMP Core 5.6-c138 79.159824, 2016/09/14-01:09:01        ">
   <rdf:RDF xmlns:rdf="http://www.w3.org/1999/02/22-rdf-syntax-ns#">
      <rdf:Description rdf:about=""/>
   </rdf:RDF>
</x:xmpmeta>
                                                                                                    
                                                                                                    
                                                                                                    
                                                                                                    
                                                                                                    
                                                                                                    
                                                                                                    
                                                                                                    
                                                                                                    
                                                                                                    
                                                                                                    
                                                                                                    
                                                                                                    
                                                                                                    
                                                                                                    
                                                                                                    
                                                                                                    
                                                                                                    
                                                                                                    
                                                                                                    
                           
<?xpacket end="w"?></metadata>
<defs>
    <style>
      .cls-1 {
        fill: #c5c715;
        fill-rule: evenodd;
      }
    </style>
  </defs>
  <path id="cloud" class="cls-1" d="M4363.21,1438.57c4.5-.05,14.98-0.04,18.75,0,5.68,0.06,5.9,12.74,0,12.78-3.37.02-14.41,0.11-18.75,0C4366.55,1448.42,4366.19,1441.46,4363.21,1438.57Zm-26.94,0c-4.5-.05-14.98-0.04-18.74,0-5.68.06-5.91,12.74,0,12.78,3.37,0.02,14.41.11,18.74,0C4332.94,1448.42,4333.29,1441.46,4336.27,1438.57Zm19.23-4.31a11.713,11.713,0,1,1-11.62.06c0-.68.01-13.2,0.01-13.2s-31.02.59-33.39,0.58-6.34-2.21-8.2-3.49-12.21-9.72-12.3-19.75c-0.11-11.28,7.01-21.06,17.57-23.82-0.23-13.31,10.74-24.7,24.6-28.46,15.44-4.19,35,3.21,41.59,15.68,10.63-4.56,17.68-2.18,23.43,4.07s5.59,14.76,1.75,19.17c8.21,2.05,14.24,5.07,14.06,15.68s-6.39,15.82-10.54,18.59a20.559,20.559,0,0,1-6.45,1.75c-0.87-.03-40.41,0-40.41,0S4355.51,1433.82,4355.5,1434.26Z" transform="translate(-4290 -1345)"/>
</svg>
