<svg xmlns="http://www.w3.org/2000/svg" width="114.688" height="128" viewBox="0 0 112 125">
  <metadata><?xpacket begin="﻿" id="W5M0MpCehiHzreSzNTczkc9d"?>
<x:xmpmeta xmlns:x="adobe:ns:meta/" x:xmptk="Adobe XMP Core 5.6-c138 79.159824, 2016/09/14-01:09:01        ">
   <rdf:RDF xmlns:rdf="http://www.w3.org/1999/02/22-rdf-syntax-ns#">
      <rdf:Description rdf:about=""/>
   </rdf:RDF>
</x:xmpmeta>
                                                                                                    
                                                                                                    
                                                                                                    
                                                                                                    
                                                                                                    
                                                                                                    
                                                                                                    
                                                                                                    
                                                                                                    
                                                                                                    
                                                                                                    
                                                                                                    
                                                                                                    
                                                                                                    
                                                                                                    
                                                                                                    
                                                                                                    
                                                                                                    
                                                                                                    
                                                                                                    
                           
<?xpacket end="w"?></metadata>
<defs>
    <style>
      .cls-1 {
        fill: #c5c715;
        fill-rule: evenodd;
      }
    </style>
  </defs>
  <path id="database" class="cls-1" d="M4846,1337c30.93,0,56,6.73,56,15.03s-25.07,15.03-56,15.03-56-6.73-56-15.03S4815.07,1337,4846,1337Zm0,100.47c19.94-.11,45.83-7.75,55.25-12.94-0.06,4.19-.16,17.36-0.04,22.44,0.08,3.77-29.14,15.06-55.21,15.03-25.62-.03-55.11-9.99-55.21-15.03s-0.02-20.12-.05-22.7C4800.8,1430.68,4825.55,1437.59,4846,1437.47Zm0-31.64c20.61,0,45.83-6.96,55.25-12.15-0.06,4.19-.16,17.36-0.04,22.43,0.08,3.77-29.14,14.27-55.21,14.24-25.62-.02-55.11-9.2-55.21-14.24s-0.02-20.11-.05-22.7C4800.8,1399.82,4824.35,1405.83,4846,1405.83Zm0-32.44c21.22,0,45.83-6.17,55.25-11.36-0.06,4.19-.16,17.36-0.04,22.44,0.08,3.77-29.14,14.27-55.21,14.24-25.62-.03-55.11-9.2-55.21-14.24s-0.02-20.12-.05-22.7C4800.8,1368.18,4825.41,1373.39,4846,1373.39Z" transform="translate(-4790 -1337)"/>
</svg>
