<svg xmlns="http://www.w3.org/2000/svg" width="127.991" height="126.983" viewBox="0 0 127 126">
  <metadata><?xpacket begin="﻿" id="W5M0MpCehiHzreSzNTczkc9d"?>
<x:xmpmeta xmlns:x="adobe:ns:meta/" x:xmptk="Adobe XMP Core 5.6-c138 79.159824, 2016/09/14-01:09:01        ">
   <rdf:RDF xmlns:rdf="http://www.w3.org/1999/02/22-rdf-syntax-ns#">
      <rdf:Description rdf:about=""/>
   </rdf:RDF>
</x:xmpmeta>
                                                                                                    
                                                                                                    
                                                                                                    
                                                                                                    
                                                                                                    
                                                                                                    
                                                                                                    
                                                                                                    
                                                                                                    
                                                                                                    
                                                                                                    
                                                                                                    
                                                                                                    
                                                                                                    
                                                                                                    
                                                                                                    
                                                                                                    
                                                                                                    
                                                                                                    
                                                                                                    
                           
<?xpacket end="w"?></metadata>
<defs>
    <style>
      .cls-1 {
        fill: #c5c715;
        fill-rule: evenodd;
      }
    </style>
  </defs>
  <path id="search" class="cls-1" d="M5085.72,1455.75l-6.71,6.2a3.981,3.981,0,0,1-5.62-.22l-6.62-7.74,12.35-10.79,6.82,6.94A3.969,3.969,0,0,1,5085.72,1455.75Zm-8.74-14.74-12.07,10.79-13.1-15.14a53.8,53.8,0,0,1-57.24-.19,64.565,64.565,0,0,1,4.57-6.04,46.3,46.3,0,0,0,47.76.39,3.2,3.2,0,0,1,.14-4.77l5.62-5.19c1.35-1.25,3.65-.96,5.14.65,0,0,11.84-7.13,11.84-30.61a46.3,46.3,0,0,0-90.44-14c-2.53-.94-4.79-1.61-7.09-2.56a53.843,53.843,0,1,1,91.19,52.68Zm-96.71-25.8a6.507,6.507,0,0,1,.77.04c1.9-4.45,9.33-21.83,10.31-24.62a7.943,7.943,0,1,1,13.28-1.97c1.57,1.53,14.87,13.92,15.98,14.8a7.909,7.909,0,0,1,3.78-.95c0.54,0,1.85-.29,1.58.15,2.38-3.95,13.17-27.37,13.17-27.37s-7.63,2.38-9.57,2.94c-3.01.87-4.77-5.27-1.91-6.11,1.96-.58,15.46-5.03,17.18-5.53,1.93-.56,2.88-0.17,3.55,1.78,0.45,1.3,5.39,15.14,5.78,16.31,0.76,2.32-5.42,4.61-6.05,2.3-0.43-1.58-3.33-9.48-3.33-9.48s-9.09,20.79-13.8,28.51c0.79-1.3,1.35,2.79,1.35,4.44a7.95,7.95,0,1,1-15.29-3.06c-1.58-1.45-14.94-14.04-15.87-14.99a7.909,7.909,0,0,1-3.82.97,7.478,7.478,0,0,1-1.5-.14c-1.45,3.81-7.7,18.1-10.14,24.13a7.952,7.952,0,1,1-12.93,3.1c-3.32-2.95-12.79-12-12.79-12l3.58-3.57s9.14,8.6,12.3,11.64A7.962,7.962,0,0,1,4980.27,1415.21Z" transform="translate(-4960 -1337)"/>
</svg>
