<svg xmlns="http://www.w3.org/2000/svg" width="128" height="113.664" viewBox="0 0 125 111">
  <metadata><?xpacket begin="﻿" id="W5M0MpCehiHzreSzNTczkc9d"?>
<x:xmpmeta xmlns:x="adobe:ns:meta/" x:xmptk="Adobe XMP Core 5.6-c138 79.159824, 2016/09/14-01:09:01        ">
   <rdf:RDF xmlns:rdf="http://www.w3.org/1999/02/22-rdf-syntax-ns#">
      <rdf:Description rdf:about=""/>
   </rdf:RDF>
</x:xmpmeta>
                                                                                                    
                                                                                                    
                                                                                                    
                                                                                                    
                                                                                                    
                                                                                                    
                                                                                                    
                                                                                                    
                                                                                                    
                                                                                                    
                                                                                                    
                                                                                                    
                                                                                                    
                                                                                                    
                                                                                                    
                                                                                                    
                                                                                                    
                                                                                                    
                                                                                                    
                                                                                                    
                           
<?xpacket end="w"?></metadata>
<defs>
    <style>
      .cls-1 {
        fill: #c5c715;
        fill-rule: evenodd;
      }
    </style>
  </defs>
  <path id="website" class="cls-1" d="M4733.97,1428.61a6.675,6.675,0,0,1-6.89,7.13c-3.27-.17-107.47.26-111.15,0s-7.07-3.13-6.88-7.13c0.16-3.59.29-67.87,0.08-78.24,0.44-.64,2.02-5.25,5.82-5.31,5.15-.07,107.96-0.09,111.15,0s7.8,2.18,7.87,6.12S4733.59,1424.11,4733.97,1428.61Zm-6.89-77.43H4615.93v71.31h111.15v-71.31Zm-95.41,7.13h79.68a2,2,0,0,1,1.96,2.04v53.99a2,2,0,0,1-1.96,2.04h-79.68a2,2,0,0,1-1.97-2.04v-53.99A2,2,0,0,1,4631.67,1358.31Zm55.08,29.54h18.69v-21.39h-18.69v21.39Zm-54.1,18.34h49.19v-4.07h-49.19v4.07Zm0-7.13h49.19v-4.08h-49.19v4.08Zm0-7.13h49.19v-4.08h-49.19v4.08Zm0-7.13h49.19v-4.08h-49.19v4.08Zm0-7.13h49.19v-4.08h-49.19v4.08Zm0-7.14h49.19v-4.07h-49.19v4.07Zm-23.6-21.39c0.03-.48.06,0,0.08,1.23C4608.97,1350.6,4608.96,1350.32,4609.05,1349.14Zm47.96,99.86a1.33,1.33,0,0,1-1-1.5v-8.99a1.33,1.33,0,0,1,1-1.5h27.98a1.33,1.33,0,0,1,1,1.5v8.99a1.33,1.33,0,0,1-1,1.5h-27.98Zm-9.03.98h46.05a1.332,1.332,0,0,1,.98,1.51v3.01a1.326,1.326,0,0,1-.98,1.5h-46.05a1.326,1.326,0,0,1-.98-1.5v-3.01A1.332,1.332,0,0,1,4647.98,1449.98Z" transform="translate(-4609 -1345)"/>
</svg>
